{"title":"Formula1.2011.Round02.Malaysia GP.Qualifying.HD 720p","uid":6307227,"size":2861937783,"categoryP":"video","categoryS":"hd___tv_shows","magnet":"?xt=urn:btih:7ff9397ca8e410999f1b334b5fc2202ceefd7cec&amp;dn=Formula1.2011.Round02.Malaysia+GP.Qualifying.HD+720p&amp;tr=udp%3A%2F%2Ftracker.openbittorrent.com%3A80&amp;tr=udp%3A%2F%2Fopen.demonii.com%3A1337&amp;tr=udp%3A%2F%2Ftracker.coppersurfer.tk%3A6969&amp;tr=udp%3A%2F%2Fexodus.desync.com%3A6969","seeders":1,"leechers":0,"uploader":"SAFCukO09","files":2,"time":1302383859,"description":"\nFormula1.2011.Round02.Malaysia.FP2.SpeedHD.mkv\n\nGeneral Information\nFormat : Matroska\nFile size : 2.80 GiB\nDuration : 1h 14mn\nOverall bit rate : 5 384 Kbps\nEncoded date : UTC 2011-04-08 15:21:19\nWriting application : mkvmerge v4.6.0 (\\'Still Crazy After All These Years\\') built on Mar 10 2011 02:50:32\nWriting library : libebml v1.2.0 + libmatroska v1.1.0\nID : 1\nFormat : AVC\nFormat/Info : Advanced Video Codec\nFormat profile : &lt;a class=&quot;__cf_email__&quot; href=&quot;/cdn-cgi/l/email-protection&quot; data-cfemail=&quot;266e4f414e666a120814&quot;&gt;[email&amp;#160;protected]&lt;/a&gt;&lt;script cf-hash='f9e31' type=&quot;text/javascript&quot;&gt;\n/* &lt;![CDATA[ */!function(){try{var t=&quot;currentScript&quot;in document?document.currentScript:function(){for(var t=document.getElementsByTagName(&quot;script&quot;),e=t.length;e--;)if(t[e].getAttribute(&quot;cf-hash&quot;))return t[e]}();if(t&amp;&amp;t.previousSibling){var e,r,n,i,c=t.previousSibling,a=c.getAttribute(&quot;data-cfemail&quot;);if(a){for(e=&quot;&quot;,r=parseInt(a.substr(0,2),16),n=2;a.length-n;n+=2)i=parseInt(a.substr(n,2),16)^r,e+=String.fromCharCode(i);e=document.createTextNode(e),c.parentNode.replaceChild(e,c)}}}catch(u){}}();/* ]]&gt; */&lt;/script&gt;\nFormat settings, CABAC : Yes\nFormat settings, ReFrames : 3 frames\nMuxing mode : Container profile=&lt;a class=&quot;__cf_email__&quot; href=&quot;/cdn-cgi/l/email-protection&quot; data-cfemail=&quot;96c3f8fdf8f9e1f8d6a2b8a4&quot;&gt;[email&amp;#160;protected]&lt;/a&gt;&lt;script cf-hash='f9e31' type=&quot;text/javascript&quot;&gt;\n/* &lt;![CDATA[ */!function(){try{var t=&quot;currentScript&quot;in document?document.currentScript:function(){for(var t=document.getElementsByTagName(&quot;script&quot;),e=t.length;e--;)if(t[e].getAttribute(&quot;cf-hash&quot;))return t[e]}();if(t&amp;&amp;t.previousSibling){var e,r,n,i,c=t.previousSibling,a=c.getAttribute(&quot;data-cfemail&quot;);if(a){for(e=&quot;&quot;,r=parseInt(a.substr(0,2),16),n=2;a.length-n;n+=2)i=parseInt(a.substr(n,2),16)^r,e+=String.fromCharCode(i);e=document.createTextNode(e),c.parentNode.replaceChild(e,c)}}}catch(u){}}();/* ]]&gt; */&lt;/script&gt;\nCodec ID : V_MPEG4/ISO/AVC\nDuration : 1h 14mn\nBit rate : 4 893 Kbps\nNominal bit rate : 4 999 Kbps\nWidth : 1 280 pixels\nHeight : 720 pixels\nDisplay aspect ratio : 16:9\nFrame rate : 59.940 fps\nResolution : 8 bitsColorimetry : 4:2:0\nScan type : Progressive\nBits/(Pixel*Frame) : 0.089\nStream size : 2.54 GiB (91%)\nWriting library : x264 core 114 r1913 5fd3dce\nID : 2\nFormat : AC-3\nFormat/Info : Audio Coding 3\nCodec ID : A_AC3\nDuration : 1h 14mn\nBit rate mode : Constant\nBit rate : 384 Kbps\nChannel(s) : 6 channels\nChannel positions : Front: L C R, Surround: L R, LFE\nSampling rate : 48.0 KHz\nStream size : 204 MiB (7%)\n\n\n[/center]","torrent":{"xt":"urn:btih:7ff9397ca8e410999f1b334b5fc2202ceefd7cec","amp;dn":"Formula1.2011.Round02.Malaysia+GP.Qualifying.HD+720p","amp;tr":["udp%3A%2F%2Ftracker.openbittorrent.com%3A80","udp%3A%2F%2Fopen.demonii.com%3A1337","udp%3A%2F%2Ftracker.coppersurfer.tk%3A6969","udp%3A%2F%2Fexodus.desync.com%3A6969"],"infoHash":"7ff9397ca8e410999f1b334b5fc2202ceefd7cec","infoHashBuffer":{"type":"Buffer","data":[127,249,57,124,168,228,16,153,159,27,51,75,95,194,32,44,238,253,124,236]},"announce":[],"urlList":[]}}